<svg width="83" height="69" viewBox="0 0 83 69" version="1.1" xmlns="http://www.w3.org/2000/svg" xmlns:xlink="http://www.w3.org/1999/xlink" xmlns:figma="http://www.figma.com/figma/ns">
<title>Awesome LCA</title>
<desc>Created using Figma</desc>
<g id="Canvas" transform="translate(-205 -451)" figma:type="canvas">
<g id="Awesome LCA" figma:type="text">
<use xlink:href="#path0_fill" transform="translate(211 443)" fill="#9B51E0"/>
</g>
</g>
<defs>
<path id="path0_fill" d="M 15.2168 8.98828C 15.0996 9.29297 14.918 9.79688 14.6719 10.5C 14.4375 11.2031 14.1562 12.041 13.8281 13.0137C 13.5 13.9863 13.1367 15.0645 12.7383 16.248C 12.3516 17.4199 11.9473 18.6387 11.5254 19.9043C 11.1035 21.1582 10.6816 22.4238 10.2598 23.7012C 9.84961 24.9668 9.45703 26.1797 9.08203 27.3398C 8.70703 28.5 8.36133 29.5664 8.04492 30.5391C 7.72852 31.5117 7.46484 32.332 7.25391 33C 6.94922 33.0469 6.62695 33.0762 6.28711 33.0879C 5.99414 33.1113 5.6543 33.1172 5.26758 33.1055C 4.89258 33.0938 4.5 33.0586 4.08984 33L 3.98438 32.8242C 4.08984 32.625 4.24219 32.2734 4.44141 31.7695C 4.64062 31.2539 4.86914 30.6328 5.12695 29.9062C 5.39648 29.1797 5.68945 28.3652 6.00586 27.4629C 6.33398 26.5488 6.66797 25.5996 7.00781 24.6152L 3.94922 24.7207C 2.84766 26.3262 1.77539 27.8262 0.732422 29.2207C -0.310547 30.6152 -1.29492 31.875 -2.2207 33C -2.45508 33.0234 -2.71875 33.041 -3.01172 33.0527C -3.25781 33.0645 -3.55078 33.0645 -3.89062 33.0527C -4.24219 33.0527 -4.62891 33.0352 -5.05078 33L -5.01562 32.7539C -4.95703 32.7539 -4.85742 32.7188 -4.7168 32.6484C -4.58789 32.5781 -4.45898 32.4785 -4.33008 32.3496C -2.8418 30.8262 -1.3418 29.168 0.169922 27.375C 1.68164 25.5703 3.13477 23.7012 4.5293 21.7676C 5.92383 19.834 7.23047 17.877 8.44922 15.8965C 9.66797 13.9043 10.7344 11.959 11.6484 10.0605C 11.6484 9.89648 11.6133 9.7793 11.543 9.70898C 11.2266 9.73242 10.8926 9.75586 10.541 9.7793C 10.1895 9.79102 9.84961 9.81445 9.52148 9.84961C 9.19336 9.88477 8.88281 9.92578 8.58984 9.97266C 8.30859 10.0195 8.08008 10.0781 7.9043 10.1484C 7.75195 10.207 7.58789 10.3066 7.41211 10.4473C 7.23633 10.5762 7.07227 10.7402 6.91992 10.9395C 6.76758 11.1387 6.63867 11.3613 6.5332 11.6074C 6.43945 11.8418 6.39258 12.082 6.39258 12.3281C 6.39258 12.4805 6.4043 12.6738 6.42773 12.9082C 6.45117 13.1309 6.49805 13.3594 6.56836 13.5938L 6.35742 13.8047C 5.75977 13.3711 5.28516 12.9199 4.93359 12.4512C 4.58203 11.9707 4.40625 11.5254 4.40625 11.1152C 4.40625 10.8809 4.48242 10.623 4.63477 10.3418C 4.79883 10.0605 4.99805 9.80273 5.23242 9.56836C 5.4668 9.32227 5.71875 9.11719 5.98828 8.95312C 6.25781 8.78906 6.49805 8.70703 6.70898 8.70703C 7.07227 8.70703 7.51172 8.71875 8.02734 8.74219C 8.55469 8.75391 9.10547 8.77148 9.67969 8.79492C 10.2656 8.81836 10.8516 8.8418 11.4375 8.86523C 12.0234 8.87695 12.5625 8.88281 13.0547 8.88281C 13.2656 8.88281 13.4531 8.88281 13.6172 8.88281C 13.7812 8.88281 13.9336 8.88281 14.0742 8.88281C 14.2266 8.87109 14.3789 8.86523 14.5312 8.86523C 14.6953 8.85352 14.8828 8.83594 15.0938 8.8125L 15.2168 8.98828ZM 7.28906 23.7891C 7.59375 22.875 7.9043 21.9492 8.2207 21.0117C 8.53711 20.0742 8.8418 19.1602 9.13477 18.2695C 9.42773 17.3672 9.70898 16.5059 9.97852 15.6855C 10.248 14.8652 10.4941 14.1094 10.7168 13.418C 9.79102 15.2109 8.79492 16.9863 7.72852 18.7441C 6.66211 20.502 5.57812 22.2188 4.47656 23.8945L 7.28906 23.7891ZM 18.0117 33.2461C 17.9414 33.2461 17.8184 33.2051 17.6426 33.123C 17.4785 33.041 17.3086 32.918 17.1328 32.7539C 16.957 32.5898 16.7988 32.3906 16.6582 32.1562C 16.5176 31.9219 16.4414 31.6523 16.4297 31.3477C 16.418 31.3008 16.4297 31.2012 16.4648 31.0488C 16.5 30.8965 16.5469 30.709 16.6055 30.4863C 16.6641 30.252 16.7344 29.9941 16.8164 29.7129C 16.9102 29.4199 17.0098 29.1094 17.1152 28.7812C 16.7285 29.2734 16.3184 29.7891 15.8848 30.3281C 15.4629 30.8555 15.0527 31.3418 14.6543 31.7871C 14.2559 32.2207 13.8867 32.5781 13.5469 32.8594C 13.207 33.1406 12.9316 33.2812 12.7207 33.2812C 12.6387 33.2812 12.4922 33.2461 12.2812 33.1758C 12.0703 33.1055 11.8594 32.9941 11.6484 32.8418C 11.4258 32.6777 11.2266 32.4727 11.0508 32.2266C 10.875 31.9805 10.7812 31.6875 10.7695 31.3477C 10.7695 31.2305 10.8457 30.9434 10.998 30.4863C 11.1387 30.0293 11.3262 29.4785 11.5605 28.834C 11.7832 28.1777 12.0234 27.4746 12.2812 26.7246C 12.5391 25.9629 12.7793 25.2246 13.002 24.5098C 13.2363 23.7832 13.4238 23.1152 13.5645 22.5059C 13.7168 21.8965 13.793 21.4219 13.793 21.082C 13.793 20.9883 13.7812 20.9062 13.7578 20.8359C 13.7344 20.7656 13.7109 20.707 13.6875 20.6602C 13.6523 20.6133 13.6172 20.5723 13.582 20.5371L 13.582 20.291C 13.8398 20.127 14.1504 19.9922 14.5137 19.8867C 14.877 19.7695 15.2285 19.6816 15.5684 19.623C 15.9551 19.5527 16.3594 19.5 16.7812 19.4648L 16.8516 19.5703C 16.7695 20.1914 16.6289 20.8828 16.4297 21.6445C 16.2305 22.3945 16.0078 23.168 15.7617 23.9648C 15.5156 24.75 15.2578 25.5293 14.9883 26.3027C 14.7305 27.0762 14.4902 27.791 14.2676 28.4473C 14.0449 29.1035 13.8633 29.6836 13.7227 30.1875C 13.582 30.6797 13.5117 31.043 13.5117 31.2773C 13.5117 31.4414 13.5586 31.5234 13.6523 31.5234C 13.7344 31.5234 13.8691 31.4414 14.0566 31.2773C 14.2559 31.1133 14.4785 30.9082 14.7246 30.6621C 14.9707 30.4043 15.2285 30.1172 15.498 29.8008C 15.7793 29.4844 16.0488 29.1738 16.3066 28.8691C 16.5645 28.5527 16.7988 28.2656 17.0098 28.0078C 17.2324 27.75 17.4082 27.5449 17.5371 27.3926C 17.7129 26.7832 17.8945 26.168 18.082 25.5469C 18.2695 24.9258 18.4336 24.334 18.5742 23.7715C 18.7266 23.1973 18.8496 22.6816 18.9434 22.2246C 19.0371 21.7559 19.084 21.375 19.084 21.082C 19.084 20.9883 19.0723 20.9062 19.0488 20.8359C 19.0254 20.7656 19.002 20.707 18.9785 20.6602C 18.9434 20.6133 18.9082 20.5723 18.873 20.5371L 18.873 20.291C 19.1426 20.127 19.4531 19.9922 19.8047 19.8867C 20.168 19.7695 20.5195 19.6816 20.8594 19.623C 21.2461 19.5527 21.6504 19.5 22.0723 19.4648L 22.1602 19.5703C 22.0781 20.1914 21.9434 20.8887 21.7559 21.6621C 21.5801 22.4355 21.3809 23.2324 21.1582 24.0527C 20.9355 24.8613 20.707 25.6641 20.4727 26.4609C 20.2383 27.2578 20.0215 28.002 19.8223 28.6934C 19.6348 29.373 19.4766 29.9707 19.3477 30.4863C 19.2305 30.9902 19.1719 31.3594 19.1719 31.5938C 19.1719 31.7578 19.2188 31.8398 19.3125 31.8398C 19.4766 31.8398 19.7168 31.6816 20.0332 31.3652C 20.3496 31.0488 20.707 30.6914 21.1055 30.293C 21.4102 30 21.6973 29.6309 21.9668 29.1855C 22.2363 28.7402 22.4824 28.2598 22.7051 27.7441C 22.9395 27.2168 23.1445 26.6719 23.3203 26.1094C 23.5078 25.5469 23.666 25.002 23.7949 24.4746C 23.9238 23.9355 24.0234 23.4316 24.0938 22.9629C 24.1641 22.4941 24.1992 22.0957 24.1992 21.7676C 24.1992 21.5215 24.1582 21.3633 24.0762 21.293C 23.9941 21.2109 23.8945 21.1875 23.7773 21.2227C 23.6602 21.2461 23.5371 21.3047 23.4082 21.3984C 23.2793 21.4922 23.1738 21.5801 23.0918 21.6621L 22.793 21.3281C 22.957 21.1406 23.1445 20.9297 23.3555 20.6953C 23.5664 20.4609 23.7832 20.2441 24.0059 20.0449C 24.2285 19.8457 24.4453 19.6758 24.6562 19.5352C 24.8672 19.3945 25.0547 19.3242 25.2188 19.3242C 25.4062 19.3242 25.5996 19.3887 25.7988 19.5176C 26.0098 19.6348 26.2031 19.7871 26.3789 19.9746C 26.5547 20.1621 26.6953 20.3613 26.8008 20.5723C 26.918 20.7715 26.9766 20.9531 26.9766 21.1172C 26.9766 22.0078 26.8477 22.8809 26.5898 23.7363C 26.332 24.5801 25.9746 25.4004 25.5176 26.1973C 25.0723 26.9941 24.5508 27.7617 23.9531 28.5C 23.3672 29.2266 22.7402 29.9121 22.0723 30.5566C 21.7676 30.8496 21.4395 31.1543 21.0879 31.4707C 20.748 31.7871 20.3965 32.0801 20.0332 32.3496C 19.6816 32.6074 19.3301 32.8242 18.9785 33C 18.627 33.1641 18.3047 33.2461 18.0117 33.2461ZM 28.3828 33.2461C 28.125 33.2461 27.8672 33.1641 27.6094 33C 27.3516 32.8242 27.1172 32.6074 26.9062 32.3496C 26.6953 32.0801 26.5254 31.7871 26.3965 31.4707C 26.2559 31.1543 26.1855 30.8496 26.1855 30.5566C 26.1855 30.2051 26.2324 29.8066 26.3262 29.3613C 26.4082 28.916 26.5195 28.4531 26.6602 27.9727C 26.7891 27.4922 26.9355 27.0176 27.0996 26.5488C 27.2637 26.0801 27.4219 25.6523 27.5742 25.2656C 27.7148 24.8672 27.8438 24.5273 27.9609 24.2461C 28.0664 23.9648 28.1426 23.7773 28.1895 23.6836C 28.4238 23.1211 28.7871 22.5762 29.2793 22.0488C 29.7832 21.5215 30.3281 21.0527 30.9141 20.6426C 31.5117 20.2324 32.1094 19.9043 32.707 19.6582C 33.3164 19.4121 33.8496 19.2891 34.3066 19.2891C 34.6816 19.2891 34.9863 19.4941 35.2207 19.9043C 35.4551 20.3145 35.5723 20.8301 35.5723 21.4512C 35.5723 21.7676 35.4961 22.0781 35.3438 22.3828C 35.2031 22.6875 35.0156 22.9746 34.7812 23.2441C 34.5586 23.5137 34.3125 23.7656 34.043 24C 33.7852 24.2344 33.5391 24.4395 33.3047 24.6152L 29.6309 27.4277C 29.4199 28.2246 29.2441 28.9336 29.1035 29.5547C 28.9746 30.1641 28.9102 30.5801 28.9102 30.8027C 28.9102 31.1426 28.957 31.4004 29.0508 31.5762C 29.1445 31.752 29.3379 31.8398 29.6309 31.8398C 30.252 31.8398 30.8965 31.5352 31.5645 30.9258C 32.2324 30.3047 32.8828 29.3145 33.5156 27.9551L 34.0254 28.2891C 33.709 29.0273 33.3398 29.7012 32.918 30.3105C 32.5078 30.9199 32.0625 31.4414 31.582 31.875C 31.1016 32.3086 30.5859 32.6484 30.0352 32.8945C 29.4961 33.1289 28.9453 33.2461 28.3828 33.2461ZM 33.0234 20.291C 32.7891 20.291 32.5371 20.4727 32.2676 20.8359C 31.998 21.1992 31.7285 21.6738 31.459 22.2598C 31.1895 22.834 30.9258 23.4902 30.668 24.2285C 30.4102 24.9551 30.1758 25.6816 29.9648 26.4082L 32.9531 24.0352C 33.0938 23.5312 33.2227 23.0391 33.3398 22.5586C 33.457 22.0664 33.5156 21.6973 33.5156 21.4512C 33.5156 21.3223 33.5039 21.1934 33.4805 21.0645C 33.4688 20.9238 33.4453 20.7949 33.4102 20.6777C 33.375 20.5605 33.3223 20.4668 33.252 20.3965C 33.1934 20.3262 33.1172 20.291 33.0234 20.291ZM 41.3555 19.1836C 41.6016 19.1836 41.8125 19.2715 41.9883 19.4473C 42.1641 19.6113 42.3047 19.8281 42.4102 20.0977C 42.5156 20.3672 42.5742 20.6777 42.5859 21.0293C 42.6094 21.3809 42.5801 21.7324 42.498 22.084C 42.4043 22.5059 42.2168 22.8516 41.9355 23.1211C 41.666 23.3789 41.3789 23.584 41.0742 23.7363C 40.7227 23.9121 40.3359 24.0469 39.9141 24.1406C 40.1602 23.6719 40.3125 23.2734 40.3711 22.9453C 40.4414 22.6172 40.4766 22.3066 40.4766 22.0137C 40.4766 21.8965 40.4648 21.7793 40.4414 21.6621C 40.4297 21.5332 40.4004 21.416 40.3535 21.3105C 40.3184 21.2051 40.2656 21.1172 40.1953 21.0469C 40.125 20.9766 40.043 20.9414 39.9492 20.9414C 39.8438 20.9414 39.7148 20.9824 39.5625 21.0645C 39.4219 21.1348 39.2812 21.2402 39.1406 21.3809C 39.0117 21.5215 38.9004 21.6914 38.8066 21.8906C 38.7246 22.0781 38.6836 22.2891 38.6836 22.5234C 38.6836 22.6172 38.7305 22.8047 38.8242 23.0859C 38.918 23.3672 39.0293 23.7129 39.1582 24.123C 39.2988 24.5215 39.4453 24.9609 39.5977 25.4414C 39.7617 25.9219 39.9082 26.4023 40.0371 26.8828C 40.1777 27.3633 40.2949 27.8262 40.3887 28.2715C 40.4824 28.7168 40.5293 29.1035 40.5293 29.4316C 40.5293 29.7598 40.4238 30.0879 40.2129 30.416C 40.002 30.7324 39.7383 31.0371 39.4219 31.3301C 39.1055 31.623 38.7539 31.8984 38.3672 32.1562C 37.9922 32.4023 37.6289 32.6191 37.2773 32.8066C 36.9375 32.9941 36.6387 33.1406 36.3809 33.2461C 36.1348 33.3516 35.9766 33.4043 35.9062 33.4043C 35.8008 33.4043 35.6602 33.3867 35.4844 33.3516C 35.3086 33.3281 35.1621 33.2812 35.0449 33.2109C 34.916 33.1406 34.7812 33.0176 34.6406 32.8418C 34.5 32.666 34.3652 32.4609 34.2363 32.2266C 34.0957 31.9922 33.9727 31.7402 33.8672 31.4707C 33.75 31.2012 33.6621 30.9434 33.6035 30.6973L 35.7656 28.7461C 35.8594 29.3086 35.9824 29.8066 36.1348 30.2402C 36.2051 30.4277 36.2812 30.6152 36.3633 30.8027C 36.4453 30.9785 36.5391 31.1367 36.6445 31.2773C 36.75 31.418 36.8672 31.5293 36.9961 31.6113C 37.125 31.6934 37.2656 31.7344 37.418 31.7344C 37.6523 31.7344 37.8281 31.6348 37.9453 31.4355C 38.0742 31.2246 38.1387 30.9668 38.1387 30.6621C 38.1387 30.5684 38.0918 30.3574 37.998 30.0293C 37.916 29.6895 37.8047 29.2969 37.6641 28.8516C 37.5234 28.4062 37.377 27.9316 37.2246 27.4277C 37.0723 26.9121 36.9258 26.4375 36.7852 26.0039C 36.6445 25.5586 36.5273 25.1777 36.4336 24.8613C 36.3516 24.5449 36.3105 24.3516 36.3105 24.2812C 36.3105 24.082 36.3457 23.8301 36.416 23.5254C 36.498 23.2207 36.6211 22.957 36.7852 22.7344C 36.8438 22.6523 36.9785 22.5059 37.1895 22.2949C 37.4004 22.084 37.6465 21.8496 37.9277 21.5918C 38.2207 21.3223 38.5312 21.0469 38.8594 20.7656C 39.1875 20.4844 39.5098 20.2266 39.8262 19.9922C 40.1543 19.7578 40.4473 19.5645 40.7051 19.4121C 40.9746 19.2598 41.1914 19.1836 41.3555 19.1836ZM 43.6934 23.8594C 43.9746 23.1797 44.3203 22.5703 44.7305 22.0312C 45.1406 21.4805 45.5918 21.0176 46.084 20.6426C 46.5762 20.2559 47.0977 19.9629 47.6484 19.7637C 48.1992 19.5645 48.7559 19.4648 49.3184 19.4648C 49.5645 19.4648 49.834 19.5352 50.127 19.6758C 50.4316 19.8047 50.7129 19.9863 50.9707 20.2207C 51.2285 20.4551 51.4395 20.7422 51.6035 21.082C 51.7793 21.4102 51.8672 21.7734 51.8672 22.1719C 51.8672 22.5117 51.8262 22.9043 51.7441 23.3496C 51.6621 23.7832 51.5566 24.2344 51.4277 24.7031C 51.2988 25.1602 51.1582 25.6172 51.0059 26.0742C 50.8535 26.5312 50.707 26.9531 50.5664 27.3398C 50.4258 27.7148 50.2969 28.0371 50.1797 28.3066C 50.0742 28.5762 49.998 28.7578 49.9512 28.8516C 49.6699 29.543 49.3242 30.1582 48.9141 30.6973C 48.5039 31.2363 48.0527 31.6992 47.5605 32.0859C 47.0684 32.4609 46.5469 32.748 45.9961 32.9473C 45.457 33.1465 44.9062 33.2461 44.3438 33.2461C 44.0977 33.2461 43.8281 33.1816 43.5352 33.0527C 43.2305 32.9238 42.9492 32.7422 42.6914 32.5078C 42.4336 32.2617 42.2227 31.9746 42.0586 31.6465C 41.8828 31.3184 41.7949 30.9551 41.7949 30.5566C 41.7949 30.2051 41.8359 29.8125 41.918 29.3789C 42 28.9336 42.1055 28.4824 42.2344 28.0254C 42.3633 27.5566 42.5039 27.0938 42.6562 26.6367C 42.8086 26.1797 42.9551 25.7637 43.0957 25.3887C 43.2363 25.0137 43.3594 24.6914 43.4648 24.4219C 43.5703 24.1406 43.6465 23.9531 43.6934 23.8594ZM 48.5625 20.4316C 48.293 20.4316 48 20.6719 47.6836 21.1523C 47.3789 21.6211 47.0684 22.2246 46.752 22.9629C 46.4473 23.7012 46.1484 24.5098 45.8555 25.3887C 45.5742 26.2559 45.3223 27.0938 45.0996 27.9023C 44.8887 28.7109 44.7129 29.4258 44.5723 30.0469C 44.4434 30.6562 44.3789 31.0664 44.3789 31.2773C 44.3789 31.6172 44.4434 31.8633 44.5723 32.0156C 44.7012 32.168 44.877 32.2441 45.0996 32.2441C 45.2988 32.2441 45.5098 32.1094 45.7324 31.8398C 45.9551 31.5586 46.1836 31.1895 46.418 30.7324C 46.6523 30.2754 46.8809 29.748 47.1035 29.1504C 47.3379 28.5527 47.5605 27.9375 47.7715 27.3047C 47.9824 26.6602 48.1758 26.0215 48.3516 25.3887C 48.5391 24.7559 48.6973 24.1699 48.8262 23.6309C 48.9668 23.0918 49.0723 22.6289 49.1426 22.2422C 49.2246 21.8438 49.2656 21.5684 49.2656 21.416C 49.2656 21.0762 49.2012 20.8301 49.0723 20.6777C 48.9434 20.5137 48.7734 20.4316 48.5625 20.4316ZM 55.9453 32.8242C 56.1211 32.4141 56.3379 31.8574 56.5957 31.1543C 56.8652 30.4512 57.1406 29.6895 57.4219 28.8691C 57.7031 28.0488 57.9844 27.2109 58.2656 26.3555C 58.5469 25.5 58.793 24.7148 59.0039 24C 59.2266 23.2852 59.4082 22.6875 59.5488 22.207C 59.6895 21.7148 59.7598 21.4219 59.7598 21.3281C 59.7598 21.1641 59.7129 21.082 59.6191 21.082C 59.502 21.082 59.3145 21.2109 59.0566 21.4688C 58.8105 21.7148 58.5352 22.0254 58.2305 22.4004C 57.9258 22.7637 57.6152 23.1504 57.2988 23.5605C 56.9824 23.9707 56.7012 24.334 56.4551 24.6504C 56.209 25.3652 55.9512 26.1035 55.6816 26.8652C 55.4121 27.627 55.1484 28.377 54.8906 29.1152C 54.6445 29.8535 54.416 30.5566 54.2051 31.2246C 53.9941 31.8926 53.8184 32.4844 53.6777 33C 53.5488 33.0234 53.4082 33.041 53.2559 33.0527C 52.9863 33.0879 52.6348 33.1055 52.2012 33.1055C 52.002 33.1055 51.791 33.0938 51.5684 33.0703C 51.3457 33.0586 51.1289 33.0352 50.918 33L 50.7949 32.8242C 50.8535 32.707 50.959 32.4668 51.1113 32.1035C 51.252 31.7402 51.4219 31.3008 51.6211 30.7852C 51.8086 30.2695 52.0195 29.6953 52.2539 29.0625C 52.4766 28.4297 52.6992 27.7852 52.9219 27.1289C 53.1445 26.4727 53.3613 25.8281 53.5723 25.1953C 53.7832 24.5625 53.9648 23.9824 54.1172 23.4551C 54.2812 22.9277 54.4102 22.4824 54.5039 22.1191C 54.6094 21.7441 54.6621 21.4922 54.6621 21.3633C 54.6621 21.2344 54.6445 21.1348 54.6094 21.0645C 54.5859 20.9941 54.5625 20.9297 54.5391 20.8711C 54.5039 20.8242 54.4688 20.7773 54.4336 20.7305L 54.4336 20.4668C 54.7031 20.3027 55.0195 20.1562 55.3828 20.0273C 55.7461 19.8984 56.0977 19.793 56.4375 19.7109C 56.8242 19.6172 57.2285 19.5352 57.6504 19.4648L 57.7207 19.5703C 57.7207 19.7109 57.6914 19.9336 57.6328 20.2383C 57.5742 20.543 57.5039 20.8711 57.4219 21.2227C 57.3516 21.5742 57.2695 21.9258 57.1758 22.2773C 57.0938 22.6172 57.0234 22.8926 56.9648 23.1035C 57.3047 22.6465 57.6504 22.1953 58.002 21.75C 58.3535 21.293 58.6934 20.8887 59.0215 20.5371C 59.3496 20.1738 59.6484 19.8809 59.918 19.6582C 60.1992 19.4355 60.4395 19.3242 60.6387 19.3242C 60.7207 19.3242 60.8555 19.3594 61.043 19.4297C 61.2422 19.5 61.4414 19.6055 61.6406 19.7461C 61.8398 19.8867 62.0156 20.0684 62.168 20.291C 62.332 20.5137 62.4199 20.7773 62.4316 21.082C 62.4316 21.1875 62.373 21.4277 62.2559 21.8027C 62.1387 22.1777 62.0039 22.5996 61.8516 23.0684C 62.2148 22.6113 62.5781 22.1602 62.9414 21.7148C 63.3164 21.2695 63.668 20.8711 63.9961 20.5195C 64.3359 20.168 64.6465 19.8809 64.9277 19.6582C 65.2207 19.4355 65.4668 19.3242 65.666 19.3242C 65.748 19.3242 65.8945 19.3652 66.1055 19.4473C 66.3164 19.5176 66.5332 19.6348 66.7559 19.7988C 66.9785 19.9512 67.1719 20.1504 67.3359 20.3965C 67.5117 20.6309 67.6055 20.918 67.6172 21.2578C 67.6172 21.375 67.5352 21.6445 67.3711 22.0664C 67.207 22.4883 67.002 22.9922 66.7559 23.5781C 66.5215 24.1641 66.2637 24.8027 65.9824 25.4941C 65.7012 26.1855 65.4375 26.8652 65.1914 27.5332C 64.957 28.2012 64.7578 28.8223 64.5938 29.3965C 64.4297 29.9707 64.3477 30.4395 64.3477 30.8027C 64.3477 30.9434 64.3594 31.0488 64.3828 31.1191C 64.418 31.1777 64.4883 31.207 64.5938 31.207C 64.7227 31.1953 64.916 31.1309 65.1738 31.0137C 65.4316 30.8848 65.7305 30.6973 66.0703 30.4512C 66.4102 30.2051 66.7734 29.9062 67.1602 29.5547C 67.5586 29.1914 67.9512 28.7695 68.3379 28.2891L 68.7246 28.6406C 68.2324 29.2617 67.6816 29.8535 67.0723 30.416C 66.4629 30.9668 65.8594 31.4531 65.2617 31.875C 64.6641 32.2969 64.1016 32.6309 63.5742 32.877C 63.0469 33.123 62.6191 33.2461 62.291 33.2461C 62.2324 33.2461 62.1562 33.2227 62.0625 33.1758C 61.9688 33.1289 61.875 33.0527 61.7812 32.9473C 61.6875 32.8418 61.6055 32.6953 61.5352 32.5078C 61.4648 32.3203 61.4297 32.0859 61.4297 31.8047C 61.4297 31.6641 61.4473 31.4883 61.4824 31.2773C 61.5176 31.0547 61.5586 30.832 61.6055 30.6094C 61.6523 30.375 61.6992 30.1641 61.7461 29.9766C 61.793 29.7773 61.8281 29.6309 61.8516 29.5371C 61.957 29.127 62.1035 28.6699 62.291 28.166C 62.4902 27.6504 62.7012 27.1172 62.9238 26.5664C 63.1465 26.0156 63.375 25.4707 63.6094 24.9316C 63.8438 24.3809 64.0547 23.8711 64.2422 23.4023C 64.4297 22.9219 64.582 22.5059 64.6992 22.1543C 64.8164 21.791 64.875 21.5156 64.875 21.3281C 64.875 21.1641 64.8281 21.082 64.7344 21.082C 64.6289 21.082 64.4473 21.1992 64.1895 21.4336C 63.9316 21.668 63.6445 21.9551 63.3281 22.2949C 63.0234 22.6348 62.7012 23.0039 62.3613 23.4023C 62.0332 23.7891 61.7344 24.1465 61.4648 24.4746C 61.1367 25.5293 60.8438 26.4668 60.5859 27.2871C 60.3281 28.1074 60.0938 28.8516 59.8828 29.5195C 59.6719 30.1875 59.4785 30.8027 59.3027 31.3652C 59.127 31.916 58.9688 32.4609 58.8281 33C 58.6992 33.0234 58.5586 33.041 58.4062 33.0527C 58.1367 33.0879 57.7852 33.1055 57.3516 33.1055C 57.1523 33.1055 56.9414 33.0938 56.7188 33.0703C 56.4961 33.0586 56.2793 33.0352 56.0684 33L 55.9453 32.8242ZM 69.5156 33.2461C 69.2578 33.2461 69 33.1641 68.7422 33C 68.4844 32.8242 68.25 32.6074 68.0391 32.3496C 67.8281 32.0801 67.6582 31.7871 67.5293 31.4707C 67.3887 31.1543 67.3184 30.8496 67.3184 30.5566C 67.3184 30.2051 67.3652 29.8066 67.459 29.3613C 67.541 28.916 67.6523 28.4531 67.793 27.9727C 67.9219 27.4922 68.0684 27.0176 68.2324 26.5488C 68.3965 26.0801 68.5547 25.6523 68.707 25.2656C 68.8477 24.8672 68.9766 24.5273 69.0938 24.2461C 69.1992 23.9648 69.2754 23.7773 69.3223 23.6836C 69.5566 23.1211 69.9199 22.5762 70.4121 22.0488C 70.916 21.5215 71.4609 21.0527 72.0469 20.6426C 72.6445 20.2324 73.2422 19.9043 73.8398 19.6582C 74.4492 19.4121 74.9824 19.2891 75.4395 19.2891C 75.8145 19.2891 76.1191 19.4941 76.3535 19.9043C 76.5879 20.3145 76.7051 20.8301 76.7051 21.4512C 76.7051 21.7676 76.6289 22.0781 76.4766 22.3828C 76.3359 22.6875 76.1484 22.9746 75.9141 23.2441C 75.6914 23.5137 75.4453 23.7656 75.1758 24C 74.918 24.2344 74.6719 24.4395 74.4375 24.6152L 70.7637 27.4277C 70.5527 28.2246 70.377 28.9336 70.2363 29.5547C 70.1074 30.1641 70.043 30.5801 70.043 30.8027C 70.043 31.1426 70.0898 31.4004 70.1836 31.5762C 70.2773 31.752 70.4707 31.8398 70.7637 31.8398C 71.3848 31.8398 72.0293 31.5352 72.6973 30.9258C 73.3652 30.3047 74.0156 29.3145 74.6484 27.9551L 75.1582 28.2891C 74.8418 29.0273 74.4727 29.7012 74.0508 30.3105C 73.6406 30.9199 73.1953 31.4414 72.7148 31.875C 72.2344 32.3086 71.7188 32.6484 71.168 32.8945C 70.6289 33.1289 70.0781 33.2461 69.5156 33.2461ZM 74.1562 20.291C 73.9219 20.291 73.6699 20.4727 73.4004 20.8359C 73.1309 21.1992 72.8613 21.6738 72.5918 22.2598C 72.3223 22.834 72.0586 23.4902 71.8008 24.2285C 71.543 24.9551 71.3086 25.6816 71.0977 26.4082L 74.0859 24.0352C 74.2266 23.5312 74.3555 23.0391 74.4727 22.5586C 74.5898 22.0664 74.6484 21.6973 74.6484 21.4512C 74.6484 21.3223 74.6367 21.1934 74.6133 21.0645C 74.6016 20.9238 74.5781 20.7949 74.543 20.6777C 74.5078 20.5605 74.4551 20.4668 74.3848 20.3965C 74.3262 20.3262 74.25 20.291 74.1562 20.291ZM 13.4766 71.7637L 24.6738 71.7637L 24.6738 76L 8.20312 76L 8.20312 50.4062L 13.4766 50.4062L 13.4766 71.7637ZM 46.6816 67.4746C 46.4824 70.2285 45.4629 72.3965 43.623 73.9785C 41.7949 75.5605 39.3809 76.3516 36.3809 76.3516C 33.0996 76.3516 30.5156 75.25 28.6289 73.0469C 26.7539 70.832 25.8164 67.7969 25.8164 63.9414L 25.8164 62.377C 25.8164 59.916 26.25 57.748 27.1172 55.873C 27.9844 53.998 29.2207 52.5625 30.8262 51.5664C 32.4434 50.5586 34.3184 50.0547 36.4512 50.0547C 39.4043 50.0547 41.7832 50.8457 43.5879 52.4277C 45.3926 54.0098 46.4355 56.2305 46.7168 59.0898L 41.4434 59.0898C 41.3145 57.4375 40.8516 56.2422 40.0547 55.5039C 39.2695 54.7539 38.0684 54.3789 36.4512 54.3789C 34.6934 54.3789 33.375 55.0117 32.4961 56.2773C 31.6289 57.5312 31.1836 59.4824 31.1602 62.1309L 31.1602 64.0645C 31.1602 66.8301 31.5762 68.8516 32.4082 70.1289C 33.252 71.4062 34.5762 72.0449 36.3809 72.0449C 38.0098 72.0449 39.2227 71.6758 40.0195 70.9375C 40.8281 70.1875 41.291 69.0332 41.4082 67.4746L 46.6816 67.4746ZM 64.5938 70.7266L 55.3477 70.7266L 53.5898 76L 47.9824 76L 57.5098 50.4062L 62.3965 50.4062L 71.9766 76L 66.3691 76L 64.5938 70.7266ZM 56.7715 66.4551L 63.1699 66.4551L 59.9531 56.875L 56.7715 66.4551Z"/>
</defs>
</svg>
